<?xml version="1.0" encoding="utf-8"?>
<!-- Generator: Adobe Illustrator 16.0.0, SVG Export Plug-In . SVG Version: 6.00 Build 0)  -->
<!DOCTYPE svg PUBLIC "-//W3C//DTD SVG 1.1//EN" "http://www.w3.org/Graphics/SVG/1.1/DTD/svg11.dtd">
<svg version="1.1" id="Layer_1" xmlns="http://www.w3.org/2000/svg" xmlns:xlink="http://www.w3.org/1999/xlink" x="0px" y="0px"
	 width="62.441px" height="70px" viewBox="0 0 62.441 70" enable-background="new 0 0 62.441 70" xml:space="preserve">
<g>
	<path fill="#B3B3B3" d="M27.089,7.411c0,0-4.902-0.147-6.846,0.947c-1.943,1.087-3.963,3.425-3.181,5.917
		c0.783,2.486,2.498,3.879,5.529,3.953c-1.165,1.326-1.864,2.029-1.086,2.182c0.781,0.155,3.037-0.16,4.201-0.863
		c0.701,1.401,1.95,3.339,1.952,4.04c0,0.704,0.231-0.077-1.008,2.183c-1.241,2.256-4.191,5.684-6.133,7.552
		c-1.938,1.87-3.028,2.727-3.104,2.492c-0.079-0.23-0.548-2.408-1.714-1.863c-1.169,0.55-11.265,8.498-11.265,8.498
		s-0.853,0.314,0.392,1.398c1.244,1.086,4.752,4.815,4.752,4.815l-6.989,6.544c0,0-1.862,1.718-0.385,3.654
		c1.485,1.943,3.355,4.113,5.457,5.201c2.098,1.09,4.434,2.248,4.829,2.248c0.383,0,1.396-0.312,0.691-1.164
		c-0.699-0.857-2.336-3.812-2.336-4.586c-0.001-0.78,15.221-12.236,15.221-12.236s0.888-0.781,1.652-0.004
		c0.76,0.775,15.796,17.242,15.796,17.242s1.092,0.695,2.647,0.072c1.554-0.629,7.151-3.979,7.298-8.88
		c0.073-1.944-0.551-2.644-2.18-0.931c-1.629,1.716-2.796,2.729-3.734,2.029c-0.93-0.701-4.515-4.736-6.463-6.756
		c-1.948-2.021-4.833-6.604-4.833-7.305c-0.005-0.698,0.148-2.566,1.783-1.866c1.632,0.695,2.958,1.55,5.524,0.767
		c2.562-0.781,4.354-1.485,5.438-1.954c1.09-0.466,1.401-1.248,1.167-1.634c-0.236-0.387,0.31-0.232,1.317-0.08
		c1.014,0.156,5.833,0.843,6.687-4.681c2.174-0.545,2.878-0.472,2.878-0.472s1.554,0.233,1.398-2.177
		c-0.166-2.41-0.796-7.467-0.796-7.467s0.541-0.935-1.399-0.852c-1.949,0.078-12.286,1.575-12.286,1.575s-2.721,0.783-2.564,2.26
		c0.158,1.478,0.944,6.455,0.944,6.455s-5.597,1.72-6.301,0.633c-0.702-1.086-3.278-7.306-3.278-7.306s-0.156-1.789,1.089-1.949
		c1.242-0.156,3.029,0.308,3.96-1.949c0.931-2.256,0.305-4.511,0.305-4.511s1.241-0.312,1.401-0.86
		c0.15-0.544,0.386-1.4-0.162-1.787c-0.548-0.389-1.558-0.541-1.945-0.622c-0.385-0.076-1.013-1.164-0.782-1.396
		c0.234-0.234,1.4-0.939,1.63-2.182c0.232-1.244-0.316-2.098-1.09-2.329c-0.78-0.233-1.559-0.542-0.937-1.632
		c0.62-1.092,1.471-2.881,1.551-3.428c0.077-0.542-1.327-2.25-2.419-2.946c-1.088-0.703-3.267-1.319-4.279-1.006
		c-1.007,0.311-2.111,0.779-3.115,1.561c-1,0.778-2.321,2.647-2.634,3.116c-0.307,0.465-0.232-0.313-0.621-1.011
		c-0.39-0.7-1.479-0.775-2.102-0.54c-0.62,0.232-0.934,1.167-0.386,1.789C26.773,5.933,27.089,7.411,27.089,7.411z"/>
</g>
</svg>
