<?xml version="1.0" encoding="utf-8"?>
<!-- Generator: Adobe Illustrator 16.0.0, SVG Export Plug-In . SVG Version: 6.00 Build 0)  -->
<!DOCTYPE svg PUBLIC "-//W3C//DTD SVG 1.1//EN" "http://www.w3.org/Graphics/SVG/1.1/DTD/svg11.dtd">
<svg version="1.1" id="Layer_1" xmlns="http://www.w3.org/2000/svg" xmlns:xlink="http://www.w3.org/1999/xlink" x="0px" y="0px"
	 width="200px" height="70px" viewBox="0 0 200 70" enable-background="new 0 0 200 70" xml:space="preserve">
<g>
	<g>
		<path fill="#2D6F3E" d="M93.467,43.913l-4.056-0.039V27.612c0-1.308-0.548-1.957-1.637-1.957l-1.113,0.04
			c-1.125,0-1.361,0.65-1.361,1.958v13.743v0.567c0,0-1.744,0-2.171,0c-2.356,0-2.211-1.634-2.211-3.008c0-0.355,0-11.302,0-11.302
			c0-1.307-0.328-1.958-1.422-1.958H78.58c-1.121,0-1.696,0.65-1.696,1.958v16.26h-4.14V28.198c0-1.838,0.538-3.387,1.611-4.646
			c1.081-1.265,2.379-1.899,3.916-1.899h1.225c1.333,0,2.526,0.532,3.59,1.587c1.024-1.055,2.215-1.587,3.576-1.587h1.333
			c1.501,0,2.786,0.638,3.865,1.922c1.074,1.286,1.608,2.831,1.608,4.624V43.913z"/>
		<path fill="#2D6F3E" d="M108.843,37.312c0,1.833-0.495,3.393-1.485,4.675c-0.989,1.285-2.187,1.926-3.594,1.926h-2.916
			c-1.416,0-2.614-0.641-3.605-1.926c-0.984-1.282-1.476-2.842-1.476-4.675v-9.115c0-1.838,0.491-3.387,1.476-4.646
			c0.991-1.265,2.189-1.899,3.605-1.899h2.916c1.407,0,2.605,0.634,3.594,1.899c0.99,1.26,1.485,2.809,1.485,4.646V37.312z
			 M105.081,37.526v-9.833c0-1.309-0.513-1.956-1.546-1.956h-2.498c-1.007,0-1.507,0.647-1.507,1.956v9.833
			c0,1.341,0.5,2.013,1.507,2.013h2.498C104.568,39.539,105.081,38.867,105.081,37.526z"/>
		<path fill="#2D6F3E" d="M125.276,37.312c0,1.872-0.531,3.436-1.601,4.703c-1.068,1.265-2.363,1.897-3.889,1.897h-8.589V21.652
			h8.589c1.493,0,2.78,0.638,3.863,1.922c1.088,1.286,1.627,2.831,1.627,4.624v0.304c0,1.629-0.439,3.055-1.322,4.285
			c0.883,1.265,1.322,2.689,1.322,4.279V37.312z M121.463,38.129v-1.712c0-0.546-0.556-1.307-1.676-1.307l-4.802-0.013l0.007,4.484
			h4.794C120.907,39.582,121.463,38.966,121.463,38.129z M121.463,29.381v-2.226c0-0.887-0.556-1.417-1.676-1.417h-4.779v4.788
			h4.779C120.907,30.526,121.463,29.856,121.463,29.381z"/>
		<path fill="#2D6F3E" d="M131.349,43.964h-3.857V21.705h3.857V43.964z"/>
		<path fill="#2D6F3E" d="M148.158,38.283c0,1.879-0.554,2.465-1.648,3.732c-1.103,1.265-2.443,1.897-4.015,1.897h-3.249
			c-1.573,0-2.904-0.633-4.012-1.897c-1.101-1.268-1.647-2.831-1.647-4.703v-9.115c0-1.838,0.547-3.387,1.647-4.646
			c1.107-1.265,2.438-1.899,4.012-1.899h3.249c1.571,0,2.912,0.634,4.015,1.899c1.095,1.26,1.648,1.833,1.648,3.671v1.349
			c0,0-3.077,0-3.354,0c-0.347,0-0.781-0.267-0.781-1.076c0-0.177,0-0.776,0-0.776c0-1.312-0.373-0.98-1.528-0.98h-3.079
			c-1.116,0-1.674,0.647-1.674,1.956v9.867c0,1.35,0.558,2.021,1.674,2.021h3.079c1.155,0,1.528,0.108,1.528-1.235
			c0,0,0,0.567,0-0.046c0-0.813,0.394-1.218,0.838-1.218c0.383,0,3.297-0.018,3.297-0.018V38.283z"/>
		<path fill="#2D6F3E" d="M165.154,28.583c0,1.675-0.498,3.154-1.475,4.432c-0.987,1.283-2.206,1.994-3.638,2.109l4.826,5.682
			c0,0,0.27,0.351,0.312,0.53c0.09,0.347,0.156,0.658-1,1.757c-0.628,0.598-1.103,0.862-1.751,0.841
			c-0.461-0.017-0.8-0.408-0.8-0.408l-7.082-8.277v8.699h-4.069l0.003-15.607c0-1.836,0.548-3.403,1.635-4.685
			c1.097-1.285,2.458-1.99,4.079-1.99h3.275c1.579,0,2.914,0.705,4.019,1.99c1.106,1.282,1.666,2.848,1.666,4.685V28.583z
			 M161.068,29.083v-1.504c0-1.35-0.615-1.841-1.77-1.841h-3.149c-1.133,0-1.552,1.601-1.552,2.949l-0.051,1.779h4.832
			C160.512,30.466,161.068,30.019,161.068,29.083z"/>
		<path fill="#2D6F3E" d="M179.681,43.913h-6.598c-1.605,0-2.941-0.633-4.004-1.897c-1.062-1.268-1.595-2.831-1.595-4.703v-9.115
			c0-1.838,0.54-3.387,1.616-4.646c1.081-1.265,2.414-1.899,3.982-1.899h6.598c1.536,0,1.15,4.086,0,4.086h-6.598
			c-1.121,0-1.678,0.647-1.678,1.956v2.832c0,0,6.294,0,6.759,0c1.211,0,1.348,0.874,1.348,1.039c0,0.13,0,1.638,0,2.589
			c0,0.77-0.597,0.957-1.354,0.957c-0.544,0-6.752,0-6.752,0v2.45c0,1.35,0.557,2.021,1.678,2.021h6.598
			C180.831,39.582,181.252,43.913,179.681,43.913z"/>
		<path fill="#2D6F3E" d="M197.207,43.913h-4.139V35.11h-6.197v8.803h-3.891V28.254c0-1.835,0.525-3.394,1.583-4.68
			c1.06-1.284,2.372-1.922,3.945-1.922h3.172c1.535,0,2.844,0.638,3.913,1.922c1.081,1.286,1.613,2.845,1.613,4.68V43.913z
			 M193.068,30.526v-2.771c0-1.343-0.562-2.017-1.693-2.017h-2.866c-1.093,0-1.638,0.674-1.638,2.017v2.771H193.068z"/>
	</g>
	<path fill="#B3B3B3" d="M27.089,7.411c0,0-4.902-0.147-6.846,0.947c-1.943,1.087-3.963,3.425-3.181,5.917
		c0.783,2.486,2.498,3.879,5.529,3.953c-1.165,1.326-1.864,2.029-1.086,2.182c0.781,0.155,3.037-0.16,4.201-0.863
		c0.701,1.401,1.95,3.339,1.952,4.04c0,0.704,0.231-0.077-1.008,2.183c-1.241,2.256-4.191,5.684-6.133,7.552
		c-1.938,1.87-3.028,2.727-3.104,2.493c-0.079-0.231-0.548-2.409-1.714-1.864c-1.169,0.55-11.265,8.498-11.265,8.498
		s-0.853,0.314,0.392,1.399c1.244,1.086,4.752,4.815,4.752,4.815l-6.989,6.544c0,0-1.862,1.718-0.385,3.654
		c1.485,1.944,3.355,4.113,5.457,5.202c2.098,1.089,4.434,2.248,4.829,2.248c0.383,0,1.396-0.312,0.691-1.165
		c-0.699-0.857-2.336-3.811-2.336-4.586c-0.001-0.78,15.221-12.236,15.221-12.236s0.888-0.781,1.652-0.004
		c0.76,0.776,15.796,17.242,15.796,17.242s1.092,0.696,2.647,0.073c1.554-0.629,7.151-3.979,7.298-8.88
		c0.073-1.945-0.551-2.644-2.18-0.931c-1.629,1.716-2.796,2.729-3.734,2.029c-0.93-0.701-4.515-4.736-6.463-6.756
		c-1.948-2.02-4.833-6.604-4.833-7.304c-0.005-0.698,0.148-2.566,1.783-1.866c1.632,0.695,2.958,1.55,5.524,0.766
		c2.562-0.781,4.354-1.485,5.438-1.954c1.09-0.466,1.401-1.248,1.167-1.634c-0.236-0.386,0.31-0.232,1.317-0.08
		c1.014,0.156,5.833,0.843,6.687-4.68c2.174-0.545,2.878-0.472,2.878-0.472s1.554,0.233,1.398-2.177
		c-0.166-2.41-0.796-7.467-0.796-7.467s0.541-0.935-1.399-0.852c-1.949,0.078-12.286,1.575-12.286,1.575s-2.721,0.783-2.564,2.26
		c0.158,1.478,0.944,6.455,0.944,6.455s-5.597,1.72-6.301,0.633c-0.702-1.086-3.278-7.306-3.278-7.306s-0.156-1.789,1.089-1.949
		c1.242-0.156,3.029,0.308,3.96-1.949c0.931-2.256,0.305-4.511,0.305-4.511s1.241-0.312,1.401-0.86
		c0.15-0.544,0.386-1.4-0.162-1.787c-0.548-0.389-1.558-0.541-1.945-0.622c-0.385-0.076-1.013-1.164-0.782-1.396
		c0.234-0.234,1.4-0.939,1.63-2.182c0.232-1.244-0.316-2.098-1.09-2.329c-0.78-0.233-1.559-0.542-0.937-1.632
		c0.62-1.092,1.471-2.881,1.551-3.428c0.077-0.542-1.327-2.25-2.419-2.946c-1.088-0.703-3.267-1.319-4.279-1.006
		c-1.007,0.311-2.111,0.779-3.115,1.561c-1,0.778-2.321,2.647-2.634,3.116c-0.307,0.465-0.232-0.313-0.621-1.011
		c-0.39-0.7-1.479-0.775-2.102-0.54c-0.62,0.232-0.934,1.167-0.386,1.789C26.773,5.933,27.089,7.411,27.089,7.411z"/>
</g>
</svg>
