<?xml version="1.0" encoding="utf-8"?>
<!-- Generator: Adobe Illustrator 16.0.0, SVG Export Plug-In . SVG Version: 6.00 Build 0)  -->
<!DOCTYPE svg PUBLIC "-//W3C//DTD SVG 1.1//EN" "http://www.w3.org/Graphics/SVG/1.1/DTD/svg11.dtd">
<svg version="1.1" id="Layer_1" xmlns="http://www.w3.org/2000/svg" xmlns:xlink="http://www.w3.org/1999/xlink" x="0px" y="0px"
	 width="140px" height="120px" viewBox="0 0 140 120" enable-background="new 0 0 140 120" xml:space="preserve">
<path fill="#6F6F6E" d="M13.948,15.177c7.675,4.041,14.208,7.104,14.208,7.104s10.57,4.132,16.185-4.636
	C49.963,8.9,55.089,3.112,47.156,0.636c-7.932-2.484-10.748,2.972-18.672,4.952C20.555,7.576,11.79,9.406,11.79,9.406
	S6.255,11.136,13.948,15.177z"/>
<path fill="#00723F" d="M126.168,70.773V23.001v-9.604V9.562H66.631v3.834v9.604v47.772H40.229V42.927h14.164V29.485H2.064v13.441
	h13.679v27.847H2.064v13.447h17.998v-2.16V70.773V42.927h15.84v27.847v11.287v2.16h101.303V70.773H126.168z M85.047,70.773H70.954
	V23.001h14.093V70.773z M103.442,70.773H89.37V23.001h14.072V70.773z M121.847,70.773h-14.082V23.001h14.082V70.773z"/>
<g>
	<path fill="#6F6F6E" d="M25.022,118.545l-4.418-0.043V103.1c0-1.25-0.6-1.854-1.772-1.854l-1.217,0.041
		c-1.226,0-1.487,0.613-1.487,1.838v13.018v0.545c0,0-1.9,0-2.359,0c-2.571,0-2.406-1.557-2.406-2.848c0-0.33,0-10.715,0-10.715
		c0-1.225-0.359-1.838-1.552-1.838H8.817c-1.221,0-1.847,0.613-1.847,1.838v15.42H2.462v-14.891c0-1.738,0.579-3.203,1.755-4.404
		c1.176-1.199,2.587-1.789,4.261-1.789h1.333c1.458,0,2.75,0.498,3.905,1.49c1.117-0.992,2.413-1.49,3.9-1.49h1.445
		c1.644,0,3.043,0.59,4.215,1.814c1.159,1.217,1.747,2.674,1.747,4.379V118.545z"/>
	<path fill="#6F6F6E" d="M41.766,112.275c0,1.738-0.551,3.229-1.623,4.43c-1.081,1.217-2.381,1.84-3.917,1.84h-3.171
		c-1.54,0-2.849-0.623-3.925-1.84c-1.064-1.201-1.602-2.691-1.602-4.43v-8.621c0-1.738,0.538-3.203,1.602-4.404
		c1.076-1.199,2.385-1.789,3.925-1.789h3.171c1.537,0,2.837,0.59,3.917,1.789c1.072,1.201,1.623,2.666,1.623,4.404V112.275z
		 M37.658,112.482v-9.307c0-1.242-0.555-1.848-1.681-1.848h-2.725c-1.097,0-1.623,0.605-1.623,1.848v9.307
		c0,1.268,0.526,1.904,1.623,1.904h2.725C37.104,114.387,37.658,113.75,37.658,112.482z"/>
	<path fill="#6F6F6E" d="M59.643,112.275c0,1.771-0.579,3.262-1.747,4.455c-1.159,1.199-2.567,1.814-4.232,1.814h-9.356V97.461
		h9.356c1.631,0,3.04,0.59,4.215,1.814c1.18,1.217,1.764,2.674,1.764,4.379v0.275c0,1.557-0.488,2.904-1.441,4.064
		c0.953,1.201,1.441,2.551,1.441,4.049V112.275z M55.49,113.053v-1.613c0-0.531-0.6-1.234-1.826-1.234l-5.221-0.008v4.23h5.221
		C54.89,114.428,55.49,113.848,55.49,113.053z M55.49,104.781v-2.111c0-0.846-0.6-1.342-1.826-1.342H48.46v4.529h5.204
		C54.89,105.857,55.49,105.221,55.49,104.781z"/>
	<path fill="#6F6F6E" d="M66.246,118.586h-4.194V97.494h4.194V118.586z"/>
	<path fill="#6F6F6E" d="M84.546,113.193c0,1.797-0.604,2.344-1.801,3.537c-1.188,1.199-2.657,1.814-4.363,1.814h-3.528
		c-1.714,0-3.175-0.615-4.362-1.814c-1.214-1.193-1.806-2.684-1.806-4.455v-8.621c0-1.738,0.592-3.203,1.806-4.404
		c1.188-1.199,2.648-1.789,4.362-1.789h3.528c1.706,0,3.176,0.59,4.363,1.789c1.197,1.201,1.801,1.738,1.801,3.479v1.275
		c0,0-3.356,0-3.655,0c-0.382,0-0.837-0.258-0.837-1.02c0-0.174,0-0.736,0-0.736c0-1.242-0.422-0.92-1.672-0.92h-3.354
		c-1.21,0-1.813,0.605-1.813,1.848v9.348c0,1.275,0.604,1.904,1.813,1.904h3.354c1.25,0,1.672,0.107,1.672-1.168
		c0,0,0,0.539,0-0.041c0-0.76,0.41-1.158,0.903-1.158c0.414,0,3.589-0.018,3.589-0.018V113.193z"/>
	<path fill="#6F6F6E" d="M103.053,104.012c0,1.58-0.55,2.998-1.619,4.207c-1.067,1.209-2.394,1.879-3.958,1.994l5.255,5.375
		c0,0,0.297,0.34,0.355,0.504c0.092,0.332,0.158,0.621-1.093,1.666c-0.695,0.57-1.206,0.818-1.912,0.801
		c-0.498-0.014-0.879-0.389-0.879-0.389l-7.704-7.855v8.262h-4.427v-14.789c0-1.738,0.597-3.229,1.784-4.428
		c1.181-1.229,2.667-1.889,4.435-1.889h3.573c1.714,0,3.164,0.66,4.364,1.889c1.209,1.199,1.825,2.689,1.825,4.428V104.012z
		 M98.594,104.482v-1.416c0-1.283-0.662-1.738-1.921-1.738h-3.432c-1.234,0-1.686,1.5-1.686,2.783l-0.058,1.68h5.257
		C97.985,105.791,98.594,105.387,98.594,104.482z"/>
	<path fill="#6F6F6E" d="M118.86,118.545h-7.184c-1.747,0-3.208-0.615-4.363-1.814c-1.15-1.193-1.738-2.684-1.738-4.455v-8.621
		c0-1.738,0.588-3.203,1.768-4.404c1.18-1.199,2.624-1.789,4.334-1.789h7.184c1.668,0,1.25,3.867,0,3.867h-7.184
		c-1.213,0-1.837,0.605-1.837,1.848v2.682c0,0,6.863,0,7.369,0c1.308,0,1.466,0.828,1.466,0.986c0,0.115,0,1.547,0,2.451
		c0,0.721-0.659,0.91-1.483,0.91c-0.591,0-7.352,0-7.352,0v2.318c0,1.275,0.624,1.904,1.837,1.904h7.184
		C120.11,114.428,120.562,118.545,118.86,118.545z"/>
	<path fill="#6F6F6E" d="M137.935,118.545h-4.513v-8.34h-6.744v8.34h-4.22v-14.84c0-1.738,0.556-3.213,1.714-4.43
		c1.159-1.225,2.579-1.814,4.303-1.814h3.444c1.673,0,3.092,0.59,4.265,1.814c1.171,1.217,1.751,2.691,1.751,4.43V118.545z
		 M133.422,105.857v-2.641c0-1.26-0.608-1.889-1.834-1.889h-3.113c-1.196,0-1.797,0.629-1.797,1.889v2.641H133.422z"/>
</g>
</svg>
