<?xml version="1.0" encoding="iso-8859-1"?>
<!-- Generator: Adobe Illustrator 18.0.0, SVG Export Plug-In . SVG Version: 6.00 Build 0)  -->
<!DOCTYPE svg PUBLIC "-//W3C//DTD SVG 1.1//EN" "http://www.w3.org/Graphics/SVG/1.1/DTD/svg11.dtd">
<svg xmlns="http://www.w3.org/2000/svg" xmlns:xlink="http://www.w3.org/1999/xlink" version="1.1" id="Capa_1" x="0px" y="0px" viewBox="0 0 76.586 76.586" style="enable-background:new 0 0 76.586 76.586;" xml:space="preserve" width="512px" height="512px">
<path d="M23.419,18.354c4.989,1.115,10.112,1.681,15.225,1.681s10.235-0.565,15.253-1.688  c0.482-0.121,0.802-0.579,0.75-1.073c-0.723-6.938-5.717-12.61-12.045-14.323V1.836c0-0.552-0.447-1-1-1s-1,0.448-1,1v0.715  c-0.646-0.085-1.298-0.144-1.961-0.144c-0.661,0-1.311,0.059-1.955,0.143V1.836c0-0.552-0.447-1-1-1s-1,0.448-1,1V2.95  c-6.326,1.711-11.322,7.384-12.045,14.324C22.588,17.778,22.923,18.243,23.419,18.354z M34.686,5.025v2.734c0,0.552,0.447,1,1,1  s1-0.448,1-1v-3.19c0.644-0.097,1.297-0.162,1.961-0.162c0.662,0,1.313,0.064,1.955,0.161v3.19c0,0.552,0.447,1,1,1s1-0.448,1-1  V5.024c5.036,1.577,9.02,6.053,9.937,11.571c-9.135,1.911-18.696,1.905-27.789,0C25.665,11.078,29.648,6.603,34.686,5.025z   M38.644,16.189c-2.078,0-4.161-0.23-6.191-0.684c-0.539-0.121-0.879-0.655-0.759-1.194c0.121-0.539,0.658-0.876,1.193-0.758  c3.779,0.844,7.744,0.843,11.512,0c0.546-0.119,1.074,0.219,1.194,0.758c0.121,0.539-0.219,1.074-0.757,1.194  C42.807,15.959,40.724,16.189,38.644,16.189z M21.968,22.873c0.02-0.649,0.077-2.625,1.496-3.16  c1.394-0.526,2.829,0.895,3.102,1.186c0.377,0.404,0.355,1.037-0.048,1.414c-0.4,0.377-1.034,0.357-1.413-0.047  c-0.277-0.293-0.692-0.586-0.913-0.654c-0.067,0.129-0.199,0.485-0.224,1.321c-0.101,3.423,2.51,4.38,2.621,4.419  c0.31,0.109,0.555,0.365,0.642,0.682l0.043,0.157c0.016,0.059,0.026,0.119,0.031,0.181c0.766,9.116,7.97,12.065,11.339,12.065  s10.573-2.949,11.339-12.065c0.005-0.062,0.016-0.122,0.031-0.181l0.043-0.157c0.089-0.322,0.332-0.579,0.648-0.685  c0.104-0.037,2.715-0.994,2.614-4.417c-0.024-0.834-0.155-1.19-0.224-1.32c-0.222,0.07-0.648,0.371-0.913,0.654  c-0.379,0.403-1.012,0.423-1.413,0.047c-0.403-0.377-0.425-1.01-0.048-1.414c0.271-0.292,1.706-1.712,3.102-1.186  c1.419,0.536,1.477,2.511,1.496,3.16c0.101,3.452-1.923,5.373-3.388,6.12c-1,9.267-8.317,13.442-13.288,13.442  c-4.971,0-12.288-4.175-13.288-13.442C23.891,28.245,21.868,26.325,21.968,22.873z M75.408,58.342  c-0.893-0.898-2.291-1.334-4.274-1.334s-3.382,0.437-4.274,1.334c-1.194,1.201-1.186,2.886-1.177,4.372l0.001,6.94  c0,3.005,2.445,5.45,5.45,5.45s5.45-2.445,5.45-5.45l0.001-6.94C76.593,61.228,76.602,59.543,75.408,58.342z M74.584,62.703  l-0.001,6.951c0,1.902-1.548,3.45-3.45,3.45c-1.402,0-2.606-0.844-3.145-2.047h2.037c0.553,0,1-0.448,1-1s-0.447-1-1-1h-2.342  l0-1.688h2.342c0.553,0,1-0.448,1-1s-0.447-1-1-1h-2.342l0-1.821h2.343c0.553,0,1-0.448,1-1s-0.447-1-1-1H67.7  c0.041-0.741,0.171-1.386,0.577-1.795c0.491-0.494,1.452-0.745,2.856-0.745s2.365,0.25,2.856,0.745  C74.597,60.363,74.591,61.5,74.584,62.703z M5.816,56.337c-2.122,0-3.615,0.464-4.565,1.419c-1.268,1.275-1.258,3.08-1.249,4.672  l0.001,7.507c0,3.206,2.608,5.814,5.813,5.814c3.206,0,5.814-2.608,5.814-5.814l0.001-7.507c0.009-1.592,0.019-3.397-1.249-4.672  C9.432,56.802,7.939,56.337,5.816,56.337z M5.816,73.75c-2.103,0-3.813-1.711-3.813-3.814l-0.002-7.518  c-0.007-1.319-0.014-2.566,0.668-3.251c0.548-0.55,1.606-0.83,3.147-0.83c1.542,0,2.601,0.279,3.148,0.83  c0.474,0.477,0.612,1.226,0.652,2.081H7.015c-0.553,0-1,0.448-1,1s0.447,1,1,1h2.617l-0.001,2.134H7.015c-0.553,0-1,0.448-1,1  s0.447,1,1,1h2.616l-0.001,1.99H7.015c-0.553,0-1,0.448-1,1s0.447,1,1,1h2.33C8.776,72.764,7.411,73.75,5.816,73.75z M12.704,54.59  c-0.147,0.408-0.531,0.662-0.941,0.662c-0.112,0-0.227-0.019-0.339-0.06c-0.52-0.187-0.789-0.76-0.603-1.279  c2.355-6.546,8.15-12.317,14.87-14.883l-0.045-0.827c-0.03-0.551,0.392-1.023,0.943-1.053c0.547-0.027,1.023,0.392,1.053,0.944  l0.255,4.655l2.902-1.362c0.5-0.235,1.097-0.019,1.33,0.48c0.234,0.5,0.02,1.095-0.48,1.33l-4.244,1.993  c-0.135,0.063-0.28,0.095-0.425,0.095c-0.178,0-0.355-0.047-0.513-0.142c-0.285-0.17-0.468-0.472-0.485-0.804l-0.176-3.213  C19.865,43.596,14.798,48.765,12.704,54.59z M65.501,55.192c-0.112,0.04-0.227,0.06-0.339,0.06c-0.41,0-0.794-0.254-0.941-0.662  c-2.17-6.031-6.939-11.096-12.611-13.475l-0.177,3.225c-0.018,0.332-0.2,0.633-0.485,0.804c-0.157,0.094-0.335,0.142-0.513,0.142  c-0.145,0-0.29-0.031-0.425-0.095l-4.244-1.993c-0.5-0.235-0.715-0.831-0.48-1.33s0.831-0.716,1.33-0.48l2.902,1.362l0.255-4.655  c0.029-0.551,0.508-0.969,1.053-0.944c0.552,0.03,0.974,0.502,0.943,1.053l-0.045,0.814c6.463,2.471,11.94,8.119,14.379,14.896  C66.291,54.433,66.021,55.005,65.501,55.192z M38.644,44.534c0.553,0,1,0.448,1,1v7.383c0,0.552-0.447,1-1,1s-1-0.448-1-1v-7.383  C37.644,44.981,38.091,44.534,38.644,44.534z M63.719,56.25c0,0.552-0.447,1-1,1h-48.15c-0.553,0-1-0.448-1-1s0.447-1,1-1h48.15  C63.272,55.25,63.719,55.698,63.719,56.25z M62.719,65.584h-2.658H17.227h-2.658c-0.553,0-1,0.448-1,1s0.447,1,1,1h1.658v6.833  c0,0.552,0.447,1,1,1h42.834c0.553,0,1-0.448,1-1v-6.833h1.658c0.553,0,1-0.448,1-1S63.272,65.584,62.719,65.584z M18.227,67.584  h19.417v5.833H18.227V67.584z M59.061,73.417H39.644v-5.833h19.417V73.417z M25.427,61.249c0-1.896-1.542-3.438-3.438-3.438  c-1.895,0-3.437,1.542-3.437,3.438s1.542,3.437,3.437,3.437C23.885,64.687,25.427,63.145,25.427,61.249z M21.99,59.812  c0.616,0,1.139,0.392,1.343,0.938h-2.685C20.851,60.203,21.373,59.812,21.99,59.812z M20.647,61.749h2.685  c-0.204,0.546-0.726,0.938-1.343,0.938C21.373,62.687,20.851,62.295,20.647,61.749z M58.986,61.249c0-1.896-1.542-3.438-3.438-3.438  s-3.438,1.542-3.438,3.438s1.542,3.437,3.438,3.437S58.986,63.145,58.986,61.249z M55.548,59.812c0.616,0,1.139,0.392,1.343,0.938  h-2.685C54.41,60.203,54.932,59.812,55.548,59.812z M54.206,61.749h2.685c-0.204,0.546-0.726,0.938-1.343,0.938  S54.41,62.295,54.206,61.749z M13.569,63.687v-4.875c0-0.552,0.447-1,1-1s1,0.448,1,1v4.875c0,0.552-0.447,1-1,1  S13.569,64.239,13.569,63.687z M63.719,58.812v4.875c0,0.552-0.447,1-1,1s-1-0.448-1-1v-4.875c0-0.552,0.447-1,1-1  S63.719,58.259,63.719,58.812z M45.276,63.834c1.275,0,2.313-1.038,2.313-2.313s-1.037-2.313-2.313-2.313H32.012  c-1.275,0-2.312,1.038-2.312,2.313s1.037,2.313,2.312,2.313H45.276z M31.7,61.521c0-0.172,0.141-0.313,0.312-0.313h13.264  c0.172,0,0.313,0.14,0.313,0.313s-0.141,0.313-0.313,0.313H32.012C31.84,61.834,31.7,61.693,31.7,61.521z M39.742,24.667  c0.553,0,1,0.448,1,1v5.973c0,0.552-0.447,1-1,1h-2.195c-0.553,0-1-0.448-1-1c0-0.552,0.447-1,1-1h1.195v-4.973  C38.742,25.114,39.189,24.667,39.742,24.667z" fill="#333333"/>
<g>
</g>
<g>
</g>
<g>
</g>
<g>
</g>
<g>
</g>
<g>
</g>
<g>
</g>
<g>
</g>
<g>
</g>
<g>
</g>
<g>
</g>
<g>
</g>
<g>
</g>
<g>
</g>
<g>
</g>
</svg>
